<svg width="30" height="28" viewBox="0 0 30 28" fill="none" xmlns="http://www.w3.org/2000/svg">
<path d="M28 13.9993H10.6362M4.50724 13.9993H2M4.50724 13.9993C4.50724 13.2098 4.83003 12.4526 5.4046 11.8943C5.97918 11.336 6.75846 11.0224 7.57103 11.0224C8.38359 11.0224 9.16288 11.336 9.73745 11.8943C10.312 12.4526 10.6348 13.2098 10.6348 13.9993C10.6348 14.7889 10.312 15.5461 9.73745 16.1043C9.16288 16.6626 8.38359 16.9763 7.57103 16.9763C6.75846 16.9763 5.97918 16.6626 5.4046 16.1043C4.83003 15.5461 4.50724 14.7889 4.50724 13.9993ZM28 23.0217H19.9217M19.9217 23.0217C19.9217 23.8114 19.5982 24.5695 19.0235 25.1279C18.4488 25.6863 17.6693 26 16.8565 26C16.044 26 15.2647 25.685 14.6901 25.1267C14.1155 24.5684 13.7928 23.8112 13.7928 23.0217M19.9217 23.0217C19.9217 22.232 19.5982 21.4753 19.0235 20.9169C18.4488 20.3584 17.6693 20.0447 16.8565 20.0447C16.044 20.0447 15.2647 20.3584 14.6901 20.9167C14.1155 21.4749 13.7928 22.2321 13.7928 23.0217M13.7928 23.0217H2M28 4.97696H23.6362M17.5072 4.97696H2M17.5072 4.97696C17.5072 4.18742 17.83 3.43022 18.4046 2.87193C18.9792 2.31364 19.7585 2 20.571 2C20.9734 2 21.3718 2.077 21.7435 2.22661C22.1152 2.37621 22.453 2.59549 22.7375 2.87193C23.0219 3.14837 23.2476 3.47654 23.4016 3.83772C23.5556 4.19891 23.6348 4.58602 23.6348 4.97696C23.6348 5.3679 23.5556 5.75501 23.4016 6.11619C23.2476 6.47737 23.0219 6.80555 22.7375 7.08198C22.453 7.35842 22.1152 7.5777 21.7435 7.7273C21.3718 7.87691 20.9734 7.95391 20.571 7.95391C19.7585 7.95391 18.9792 7.64027 18.4046 7.08198C17.83 6.52369 17.5072 5.76649 17.5072 4.97696Z" stroke="#403148" stroke-width="3.125" stroke-miterlimit="10" stroke-linecap="round"/>
</svg>
