<svg width="9" height="16" viewBox="0 0 9 16" fill="none" xmlns="http://www.w3.org/2000/svg">
<path d="M7.18092 0.624165L0.347349 7.72305C0.227328 7.84774 0.160156 8.01497 0.160156 8.1891C0.160156 8.36322 0.227328 8.53045 0.347349 8.65514L7.18092 15.7567C7.23683 15.8148 7.30368 15.8611 7.37751 15.8926C7.45135 15.9242 7.53068 15.9404 7.61082 15.9404C7.69097 15.9404 7.7703 15.9242 7.84414 15.8926C7.91797 15.8611 7.98482 15.8148 8.04073 15.7567C8.15576 15.6375 8.22016 15.4774 8.22016 15.3107C8.22016 15.144 8.15576 14.9839 8.04073 14.8647L1.61463 8.1891L8.04073 1.51486C8.15536 1.39568 8.21951 1.23589 8.21951 1.06951C8.21951 0.903142 8.15536 0.743345 8.04073 0.624165C7.98482 0.566018 7.91797 0.519802 7.84414 0.488245C7.7703 0.456688 7.69097 0.44043 7.61082 0.44043C7.53068 0.44043 7.45135 0.456688 7.37751 0.488245C7.30368 0.519802 7.23683 0.566018 7.18092 0.624165Z" fill="#403148"/>
</svg>
