<svg width="9" height="16" viewBox="0 0 9 16" fill="none" xmlns="http://www.w3.org/2000/svg">
<path d="M1.40566 0.378004L8.0188 7.24789C8.13495 7.36856 8.19995 7.5304 8.19995 7.6989C8.19995 7.86741 8.13495 8.02925 8.0188 8.14992L1.40566 15.0224C1.35155 15.0787 1.28687 15.1234 1.21541 15.1539C1.14396 15.1845 1.06719 15.2002 0.989627 15.2002C0.912069 15.2002 0.835297 15.1845 0.763842 15.1539C0.692387 15.1234 0.627699 15.0787 0.573594 15.0224C0.462274 14.907 0.399951 14.7521 0.399951 14.5908C0.399951 14.4294 0.462274 14.2745 0.573594 14.1591L6.79239 7.6989L0.573594 1.23997C0.462656 1.12463 0.400574 0.969992 0.400574 0.808987C0.400574 0.647981 0.462656 0.493339 0.573594 0.378004C0.627699 0.321732 0.692387 0.277007 0.763842 0.246468C0.835297 0.215929 0.912069 0.200195 0.989627 0.200195C1.06719 0.200195 1.14396 0.215929 1.21541 0.246468C1.28687 0.277007 1.35155 0.321732 1.40566 0.378004Z" fill="#403148"/>
</svg>
